# xmcd
#
# Track frame offsets:
#	150
#	28600
#	41897
#	66800
#	84620
#	111210
#	138485
#	159545
#	178555
#	189492
#	208912
#	224782
#	244205
#	265642
#
# Disc length: 4257 seconds
#
# Revision: 1
# Processed by: cddbd v1.5.2PL0 Copyright (c) Steve Scherf et al.
# Submitted via: audiograbber 1.83.01
#
DISCID=d5109f0e
DTITLE=Various Artist - Rock and Blues Forever
DYEAR=1999
DGENRE=Blues - Rock
TTITLE0=Climax Blues Band - Couldn't Get It Right
TTITLE1=Dr. Feelgood - Dust My Broom
TTITLE2=Steve Marriott and Band - All Or Nothing (Live)
TTITLE3=Stan Webb's Chicken Shack - Hold On
TTITLE4=Roi Hollingworth and Martin Turner - Good Enough To Bleed For
TTITLE5=Medicine Head - One And One Is One
TTITLE6=The Lloyd Langton Group - Strange Times
TTITLE7=Climax Blues Band - Ordinary People
TTITLE8=Dr. Feelgood - Mad Man Blues
TTITLE9=Stan Webb's Chicken Shack - Who Cares
TTITLE10=Medicine Head - Cadillacs And Diamonds
TTITLE11=The Lloyd Langton Group - Like An Arrow
TTITLE12=Pete Haycock - The Hurt Stays Home
TTITLE13=Steve Marriott and Band - I Don't Need No Doctor (Live)
EXTD=
EXTT0=
EXTT1=
EXTT2=
EXTT3=
EXTT4=
EXTT5=
EXTT6=
EXTT7=
EXTT8=
EXTT9=
EXTT10=
EXTT11=
EXTT12=
EXTT13=
PLAYORDER=
